<svg width="28" height="28" viewBox="0 0 28 28" fill="none" xmlns="http://www.w3.org/2000/svg">
<path fill-rule="evenodd" clip-rule="evenodd" d="M17.3588 19.2486C15.2247 20.9537 12.5187 21.7769 9.79663 21.5492C7.07452 21.3215 4.54291 20.0602 2.72176 18.0242C0.900609 15.9882 -0.0718389 13.3322 0.00413907 10.6017C0.0801171 7.8711 1.19875 5.27327 3.1303 3.34173C5.06185 1.41018 7.65968 0.291543 10.3902 0.215565C13.1208 0.139587 15.7768 1.11204 17.8128 2.93319C19.8487 4.75434 21.1101 7.28594 21.3378 10.0081C21.5655 12.7302 20.7423 15.4361 19.0371 17.5702L27.2008 25.7323C27.3175 25.841 27.4111 25.9721 27.476 26.1178C27.5409 26.2635 27.5758 26.4207 27.5786 26.5802C27.5814 26.7396 27.5521 26.898 27.4923 27.0458C27.4326 27.1937 27.3437 27.328 27.231 27.4408C27.1182 27.5536 26.9839 27.6424 26.836 27.7022C26.6881 27.7619 26.5298 27.7912 26.3703 27.7884C26.2109 27.7856 26.0536 27.7507 25.908 27.6858C25.7623 27.6209 25.6312 27.5273 25.5225 27.4106L17.3588 19.2486ZM4.80931 16.7754C3.64721 15.6132 2.85572 14.1325 2.53487 12.5206C2.21402 10.9087 2.37822 9.23784 3.0067 7.71921C3.63519 6.20057 4.69975 4.90234 6.06586 3.98856C7.43197 3.07478 9.0383 2.58649 10.6818 2.58538C12.3254 2.58427 13.9324 3.07041 15.2997 3.98235C16.667 4.89428 17.7334 6.19109 18.3639 7.70887C18.9944 9.22666 19.1609 10.8973 18.8422 12.5096C18.5235 14.122 17.734 15.6037 16.5735 16.7675L16.5656 16.7754L16.5576 16.7817C14.9982 18.3376 12.885 19.2108 10.6822 19.2096C8.47934 19.2084 6.36706 18.3329 4.80931 16.7754Z" fill="black"/>
</svg>
