<svg width="32" height="28" viewBox="0 0 32 28" fill="none" xmlns="http://www.w3.org/2000/svg">
<path d="M2.76642 24.3788C4.66642 26.6667 8.20042 26.6667 15.2716 26.6667H16.4116C23.4827 26.6667 27.0183 26.6667 28.9183 24.3788M2.76642 24.3788C0.866417 22.0893 1.51875 18.6155 2.82183 11.6646C3.74808 6.72462 4.21042 4.25304 5.9695 2.79321M28.9183 24.3788C30.8183 22.0893 30.166 18.6155 28.8629 11.6646C27.9367 6.72462 27.4728 4.25304 25.7137 2.79321M25.7137 2.79321C23.9562 1.33337 21.4402 1.33337 16.4132 1.33337H15.27C10.2429 1.33337 7.72858 1.33337 5.9695 2.79321" stroke="black" stroke-width="2"/>
<path d="M11.3608 7.66675C11.688 8.59384 12.2946 9.39665 13.0971 9.9645C13.8997 10.5324 14.8586 10.8373 15.8417 10.8373C16.8248 10.8373 17.7837 10.5324 18.5862 9.9645C19.3888 9.39665 19.9954 8.59384 20.3225 7.66675" stroke="black" stroke-width="2" stroke-linecap="round"/>
</svg>
